# xmcd
#
# Track frame offsets:
#	150
#	25752
#	42820
#	84235
#	107430
#	141985
#	161675
#	186577
#
# Disc length: 2739 seconds
#
# Revision: 1
# Processed by: cddbd v1.5.2PL0 Copyright (c) Steve Scherf et al.
# Submitted via: audiograbber 1.83.01
#
DISCID=600ab108
DTITLE=Lemon James - Livin' in the Sun
DYEAR=1999
DGENRE=Blues
TTITLE0=Come on over here (Groove on)
TTITLE1=Whispering Secrets
TTITLE2=Livin' in the Sun
TTITLE3=Foxey Lady
TTITLE4=Loneliness Calls
TTITLE5=This is what I am
TTITLE6=Get it straight
TTITLE7=Walk with me
EXTD=
EXTT0=
EXTT1=
EXTT2=
EXTT3=
EXTT4=
EXTT5=
EXTT6=
EXTT7=
PLAYORDER=
